<?xml version="1.0" encoding="utf-8"?>
<!-- Generator: Adobe Illustrator 25.0.1, SVG Export Plug-In . SVG Version: 6.00 Build 0)  -->
<svg version="1.1" id="Layer_1" xmlns="http://www.w3.org/2000/svg" xmlns:xlink="http://www.w3.org/1999/xlink" x="0px" y="0px"
	 viewBox="0 0 700 420" style="enable-background:new 0 0 700 420;" xml:space="preserve">
<style type="text/css">
	.st0{fill:#FFFFFF;}
	.st1{fill:#4398D1;}
	.st2{fill:#87CED9;}
	.st3{fill:#71C4D1;}
	.st4{fill:#5EB3D1;}
	.st5{fill:#E34B87;}
	.st6{fill:#BF3D75;}
	.st7{fill:#DADDDF;}
	.st8{fill:#D0D4D6;}
	.st9{fill:#FFB782;}
	.st10{fill:#FFAE73;}
	.st11{fill:#3E8CC7;}
	.st12{fill:#3269A1;}
	.st13{fill:#F2A46F;}
	.st14{fill:#E5E5E5;}
	.st15{fill:#DBDBDB;}
	.st16{fill:#70C2CF;}
	.st17{display:none;fill:#4398D1;}
	.st18{display:none;fill:#87CED9;}
	.st19{display:none;fill:#3E8CC7;}
	.st20{display:none;fill:#70C2CF;}
	.st21{display:none;}
	.st22{fill:none;stroke:#000000;stroke-width:4;stroke-miterlimit:10;}
	.st23{fill:none;stroke:#000000;stroke-width:4;stroke-miterlimit:10;stroke-dasharray:5.8,5.8;}
	.st24{fill:none;stroke:#000000;stroke-width:4;stroke-miterlimit:10;stroke-dasharray:5.8226,5.8226;}
	.st25{fill:none;stroke:#000000;stroke-width:4;stroke-miterlimit:10;stroke-dasharray:6.3333,6.3333;}
	.st26{fill:none;stroke:#000000;stroke-width:4;stroke-miterlimit:10;stroke-dasharray:5.8276,5.8276;}
	.st27{fill:none;stroke:#000000;stroke-width:4;stroke-miterlimit:10;stroke-dasharray:5.6842,5.6842;}
	.st28{fill:none;stroke:#000000;stroke-width:4;stroke-miterlimit:10;stroke-dasharray:7,7;}
	.st29{fill:#CECECC;}
	.st30{fill:#D8D8D6;}
	.st31{fill:#D65246;}
	.st32{fill:#DFDFDD;}
	.st33{fill:#EAEAE8;}
	.st34{fill:#B7B7B5;}
	.st35{fill:none;stroke:#000000;stroke-width:4;stroke-linejoin:round;stroke-miterlimit:10;}
	.st36{opacity:0.4;}
</style>
<rect class="st0" width="700" height="420"/>
<g>
	<g id="surface1">
		<path class="st1" d="M235.78,270.19h-79.5c-4.39,0-7.95,3.56-7.95,7.95v61.62h95.4v-61.62
			C243.73,273.75,240.17,270.19,235.78,270.19z"/>
		<path class="st2" d="M156.27,278.14h79.5v65.59h-79.5V278.14z"/>
		<path class="st3" d="M235.78,278.14h-39.7c0,0.33-0.05,0.66-0.05,0.99c0,17.01,13.8,30.81,30.81,30.81c3.03,0,6.04-0.45,8.94-1.33
			V278.14z"/>
		<path class="st3" d="M165.5,343.73h70.27v-65.59h-9.74L165.5,343.73z"/>
		<path class="st4" d="M162.24,284.1h3.98v3.98h-3.98V284.1z"/>
		<path class="st4" d="M170.19,284.1h3.97v3.98h-3.97V284.1z"/>
		<path class="st4" d="M178.14,284.1h3.97v3.98h-3.97V284.1z"/>
		<path class="st4" d="M164.22,329.81h9.94v3.97h-9.94V329.81z"/>
		<path class="st4" d="M182.11,329.81h9.94v3.97h-9.94V329.81z"/>
		<path class="st4" d="M200,329.81h9.94v3.97H200V329.81z"/>
		<path class="st4" d="M217.89,329.81h9.94v3.97h-9.94V329.81z"/>
		<path class="st4" d="M164.22,294.04h63.6v11.93h-63.6V294.04z"/>
		<path class="st4" d="M182.11,313.91h9.94v9.94h-9.94V313.91z"/>
		<path class="st4" d="M164.22,313.91h9.94v9.94h-9.94V313.91z"/>
		<path class="st4" d="M217.89,313.91h9.94v9.94h-9.94V313.91z"/>
		<path class="st4" d="M200,313.91h9.94v9.94H200V313.91z"/>
		<path class="st5" d="M257.64,276.15c0,15.37-12.46,27.83-27.83,27.83s-27.83-12.46-27.83-27.83s12.46-27.83,27.83-27.83
			S257.64,260.78,257.64,276.15z"/>
		<path class="st6" d="M229.81,262.24c0.88,0.01,1.76,0.1,2.62,0.28l-2.94,1.85l2.12,3.37l6.71-4.22c0.93-0.58,1.21-1.81,0.62-2.74
			c-0.02-0.04-0.05-0.08-0.08-0.11l-4.89-6.71l-3.21,2.34l1.59,2.17c-9.73-1.45-18.8,5.27-20.24,15c-0.13,0.89-0.2,1.8-0.19,2.7
			c-0.01,3.68,1.12,7.26,3.24,10.27l3.25-2.28c-4.41-6.29-2.89-14.97,3.41-19.38C224.17,263.12,226.96,262.24,229.81,262.24z"/>
		<path class="st6" d="M244.38,265.65l-3.25,2.28c4.41,6.29,2.89,14.97-3.41,19.38c-2.34,1.64-5.13,2.52-7.99,2.52
			c-0.88-0.01-1.76-0.1-2.62-0.28l2.94-1.85l-2.12-3.36l-6.71,4.22c-0.93,0.58-1.21,1.81-0.62,2.74c0.02,0.04,0.05,0.08,0.08,0.11
			l4.89,6.71l3.21-2.34l-1.59-2.17c9.78,1.4,18.84-5.39,20.24-15.17C248.07,273.94,246.98,269.37,244.38,265.65L244.38,265.65z"/>
		<path class="st7" d="M243.73,351.68h-95.4c-3.29,0-5.96-2.67-5.96-5.96v-5.96h41.51c1.36,0,2.61,0.77,3.22,1.99
			c0.61,1.22,1.85,1.99,3.22,1.99h11.46c1.36,0,2.61-0.77,3.22-1.99c0.61-1.22,1.85-1.99,3.22-1.99h41.51v5.96
			C249.69,349.01,247.02,351.68,243.73,351.68z"/>
		<path class="st8" d="M239.75,339.75v5.96c0,3.29-2.67,5.96-5.96,5.96h9.94c3.29,0,5.96-2.67,5.96-5.96v-5.96H239.75z"/>
		<path d="M148.32,353.67h95.4c4.39,0,7.95-3.56,7.95-7.95v-5.96c0-1.1-0.89-1.99-1.99-1.99h-3.98v-29.81h-3.97v29.81h-3.97v-27.83
			h-3.98v27.83h-25.6c-2.12-0.01-4.05,1.19-4.99,3.09c-0.27,0.55-0.83,0.89-1.44,0.89H190.3c-0.61,0-1.17-0.34-1.44-0.89
			c-0.94-1.9-2.88-3.09-4.99-3.09h-25.6v-57.64h37.76v-3.98h-39.75c-1.1,0-1.99,0.89-1.99,1.99v59.63h-3.97v-59.63
			c0-3.29,2.67-5.96,5.96-5.96h39.75v-3.97h-39.75c-5.49,0.01-9.93,4.45-9.94,9.94v59.63h-3.98c-1.1,0-1.99,0.89-1.99,1.99v5.96
			C140.37,350.11,143.93,353.67,148.32,353.67z M144.35,341.74h39.52c0.61,0,1.17,0.34,1.44,0.89c0.94,1.9,2.88,3.09,4.99,3.09
			h11.46c2.12,0.01,4.05-1.19,4.99-3.09c0.27-0.55,0.83-0.89,1.44-0.89h39.52v3.97c0,2.2-1.78,3.98-3.98,3.98h-95.4
			c-2.2,0-3.98-1.78-3.98-3.98L144.35,341.74L144.35,341.74z"/>
		<path d="M162.24,284.1h3.98v3.98h-3.98V284.1z"/>
		<path d="M170.19,284.1h3.97v3.98h-3.97V284.1z"/>
		<path d="M178.14,284.1h3.97v3.98h-3.97V284.1z"/>
		<path d="M200,296.02v-3.97h-35.78c-1.1,0-1.99,0.89-1.99,1.99v11.93c0,1.1,0.89,1.99,1.99,1.99h47.7v-3.97h-45.71v-7.95H200z"/>
		<path d="M162.24,329.81h13.91v3.97h-13.91V329.81z"/>
		<path d="M180.12,329.81h13.91v3.97h-13.91V329.81z"/>
		<path d="M198.01,329.81h13.91v3.97h-13.91V329.81z"/>
		<path d="M215.9,329.81h13.91v3.97H215.9V329.81z"/>
		<path d="M194.04,313.91c0-1.1-0.89-1.99-1.99-1.99h-9.94c-1.1,0-1.99,0.89-1.99,1.99v9.94c0,1.1,0.89,1.99,1.99,1.99h9.94
			c1.1,0,1.99-0.89,1.99-1.99V313.91z M190.06,321.86h-5.96v-5.96h5.96V321.86z"/>
		<path d="M176.15,313.91c0-1.1-0.89-1.99-1.99-1.99h-9.94c-1.1,0-1.99,0.89-1.99,1.99v9.94c0,1.1,0.89,1.99,1.99,1.99h9.94
			c1.1,0,1.99-0.89,1.99-1.99V313.91z M172.17,321.86h-5.96v-5.96h5.96V321.86z"/>
		<path d="M227.83,325.84c1.1,0,1.99-0.89,1.99-1.99v-9.94c0-1.1-0.89-1.99-1.99-1.99h-9.94c-1.1,0-1.99,0.89-1.99,1.99v9.94
			c0,1.1,0.89,1.99,1.99,1.99H227.83z M219.88,315.9h5.96v5.96h-5.96V315.9z"/>
		<path d="M211.93,313.91c0-1.1-0.89-1.99-1.99-1.99H200c-1.1,0-1.99,0.89-1.99,1.99v9.94c0,1.1,0.89,1.99,1.99,1.99h9.94
			c1.1,0,1.99-0.89,1.99-1.99V313.91z M207.95,321.86h-5.96v-5.96h5.96V321.86z"/>
		<path d="M229.81,246.33c-16.47,0-29.81,13.35-29.81,29.81c0,16.47,13.35,29.81,29.81,29.81s29.81-13.35,29.81-29.81
			C259.61,259.69,246.27,246.35,229.81,246.33z M229.81,301.99c-14.27,0-25.84-11.57-25.84-25.84s11.57-25.84,25.84-25.84
			s25.84,11.57,25.84,25.84C255.64,290.41,244.08,301.97,229.81,301.99z"/>
		<path d="M229.81,262.24c0.88,0.01,1.76,0.1,2.62,0.28l-2.94,1.85l2.12,3.37l6.71-4.22c0.93-0.58,1.21-1.81,0.62-2.74
			c-0.02-0.04-0.05-0.08-0.08-0.11l-4.89-6.71l-3.21,2.34l1.59,2.17c-9.73-1.45-18.8,5.27-20.24,15c-0.13,0.89-0.2,1.8-0.19,2.7
			c-0.01,3.68,1.12,7.26,3.24,10.27l3.25-2.28c-4.41-6.29-2.89-14.97,3.41-19.38C224.17,263.12,226.96,262.24,229.81,262.24z"/>
		<path d="M241.13,267.93c4.41,6.29,2.89,14.97-3.41,19.38c-2.34,1.64-5.13,2.52-7.99,2.52c-0.88-0.01-1.76-0.1-2.62-0.28l2.94-1.85
			l-2.12-3.36l-6.71,4.22c-0.93,0.58-1.21,1.81-0.62,2.74c0.02,0.04,0.05,0.08,0.08,0.11l4.89,6.71l3.21-2.34l-1.59-2.17
			c9.78,1.4,18.84-5.39,20.24-15.17c0.64-4.5-0.45-9.07-3.05-12.79L241.13,267.93z"/>
	</g>
</g>
<g>
	<g id="surface1_1_">
		<path class="st9" d="M645.71,359.63v-48.66c0-4.46-1.87-8.71-5.16-11.73l-18.7-17.13h-9.94v77.52"/>
		<path class="st10" d="M627.83,287.58l-5.96-5.47h-9.94v33.79h15.9V287.58z"/>
		<path class="st1" d="M562.24,242.36h51.68c4.39,0,7.95,3.56,7.95,7.95v99.38c0,4.39-3.56,7.95-7.95,7.95h-51.68
			c-4.39,0-7.95-3.56-7.95-7.95v-99.38C554.28,245.92,557.84,242.36,562.24,242.36z"/>
		<path class="st11" d="M609.94,250.31v3.97h11.93v-3.97c0-4.39-3.56-7.95-7.95-7.95h-11.93
			C606.38,242.36,609.94,245.92,609.94,250.31z"/>
		<path class="st2" d="M621.86,254.28h-67.58v87.45h67.58V254.28z"/>
		<path class="st3" d="M571.45,341.74h50.41v-87.45H611.2L571.45,341.74z"/>
		<path class="st5" d="M564.22,262.24h7.95c1.1,0,1.99,0.89,1.99,1.99v7.95c0,1.1-0.89,1.99-1.99,1.99h-7.95
			c-1.1,0-1.99-0.89-1.99-1.99v-7.95C562.24,263.13,563.13,262.24,564.22,262.24z"/>
		<path class="st6" d="M584.1,262.24h7.95c1.1,0,1.99,0.89,1.99,1.99v7.95c0,1.1-0.89,1.99-1.99,1.99h-7.95
			c-1.1,0-1.99-0.89-1.99-1.99v-7.95C582.11,263.13,583,262.24,584.1,262.24z"/>
		<path class="st5" d="M603.97,262.24h7.95c1.1,0,1.99,0.89,1.99,1.99v7.95c0,1.1-0.89,1.99-1.99,1.99h-7.95
			c-1.1,0-1.99-0.89-1.99-1.99v-7.95C601.99,263.13,602.88,262.24,603.97,262.24z"/>
		<path class="st5" d="M564.22,282.11h7.95c1.1,0,1.99,0.89,1.99,1.99v7.95c0,1.1-0.89,1.99-1.99,1.99h-7.95
			c-1.1,0-1.99-0.89-1.99-1.99v-7.95C562.24,283,563.13,282.11,564.22,282.11z"/>
		<path class="st6" d="M564.22,301.99h7.95c1.1,0,1.99,0.89,1.99,1.99v7.95c0,1.1-0.89,1.99-1.99,1.99h-7.95
			c-1.1,0-1.99-0.89-1.99-1.99v-7.95C562.24,302.88,563.13,301.99,564.22,301.99z"/>
		<path class="st5" d="M584.1,282.11h7.95c1.1,0,1.99,0.89,1.99,1.99v7.95c0,1.1-0.89,1.99-1.99,1.99h-7.95
			c-1.1,0-1.99-0.89-1.99-1.99v-7.95C582.11,283,583,282.11,584.1,282.11z"/>
		<path class="st5" d="M603.97,282.11h7.95c1.1,0,1.99,0.89,1.99,1.99v7.95c0,1.1-0.89,1.99-1.99,1.99h-7.95
			c-1.1,0-1.99-0.89-1.99-1.99v-7.95C601.99,283,602.88,282.11,603.97,282.11z"/>
		<path class="st5" d="M584.1,301.99h7.95c1.1,0,1.99,0.89,1.99,1.99v7.95c0,1.1-0.89,1.99-1.99,1.99h-7.95
			c-1.1,0-1.99-0.89-1.99-1.99v-7.95C582.11,302.88,583,301.99,584.1,301.99z"/>
		<path class="st5" d="M564.22,321.86h7.95c1.1,0,1.99,0.89,1.99,1.99v7.95c0,1.1-0.89,1.99-1.99,1.99h-7.95
			c-1.1,0-1.99-0.89-1.99-1.99v-7.95C562.24,322.75,563.13,321.86,564.22,321.86z"/>
		<path class="st6" d="M584.1,321.86h7.95c1.1,0,1.99,0.89,1.99,1.99v7.95c0,1.1-0.89,1.99-1.99,1.99h-7.95
			c-1.1,0-1.99-0.89-1.99-1.99v-7.95C582.11,322.75,583,321.86,584.1,321.86z"/>
		<path class="st12" d="M586.09,347.7h3.98v3.97h-3.98V347.7z"/>
		<path class="st3" d="M554.28,254.28h67.58v3.98h-67.58V254.28z"/>
		<path class="st3" d="M554.28,337.76h67.58v3.97h-67.58V337.76z"/>
		<path class="st9" d="M609.94,359.63v-3.56c0-9.35,2.77-18.48,7.95-26.26l-13.91-13.91c-3.29-3.3-3.29-8.64,0-11.93
			c0.19-0.19,0.4-0.38,0.61-0.55c3.5-2.72,8.49-2.37,11.57,0.81l29.56,29.56v25.84H609.94z"/>
		<path class="st13" d="M635.78,325.84c-0.53,0-1.03-0.21-1.4-0.58l-13.91-13.91c-0.76-0.79-0.74-2.05,0.05-2.81
			c0.77-0.74,1.99-0.74,2.76,0l13.91,13.91c0.78,0.78,0.78,2.04,0,2.81C636.81,325.63,636.3,325.84,635.78,325.84z"/>
		<path d="M629.71,286.61l-2.68,2.93l12.19,11.17c2.87,2.64,4.5,6.36,4.51,10.26v48.66h3.98v-48.66c-0.01-5.01-2.11-9.8-5.8-13.19
			L629.71,286.61z"/>
		<path d="M613.91,240.37h-51.68c-5.49,0.01-9.93,4.45-9.94,9.94v99.38c0.01,5.49,4.45,9.93,9.94,9.94h49.69v-3.56
			c-0.01-8.95,2.64-17.71,7.62-25.16c0.53-0.79,0.42-1.84-0.25-2.51l-13.91-13.91c-2.52-2.52-2.51-6.6,0-9.11
			c0.15-0.15,0.31-0.29,0.47-0.43c2.71-2.07,6.54-1.78,8.9,0.69l19.62,19.62l2.81-2.81l-13.33-13.33v-58.8
			C623.84,244.82,619.4,240.38,613.91,240.37z M619.88,305.14l-2.31-2.31c-3.81-3.9-9.95-4.3-14.24-0.94
			c-4.45,3.66-5.09,10.23-1.43,14.67c0.21,0.26,0.44,0.51,0.68,0.75l12.78,12.78c-4.77,7.68-7.32,16.53-7.39,25.57h-45.73
			c-3.29,0-5.96-2.67-5.96-5.96v-5.96h49.69v-3.98h-49.69v-83.48h63.6V305.14z M619.88,252.3h-63.6v-1.99
			c0-3.29,2.67-5.96,5.96-5.96h51.68c3.29,0,5.96,2.67,5.96,5.96V252.3z"/>
		<path d="M564.22,276.15h7.95c2.2,0,3.98-1.78,3.98-3.97v-7.95c0-2.2-1.78-3.97-3.98-3.97h-7.95c-2.2,0-3.97,1.78-3.97,3.97v7.95
			C560.25,274.37,562.03,276.15,564.22,276.15z M564.22,264.22h7.95v7.95h-7.95V264.22z"/>
		<path d="M584.1,276.15h7.95c2.2,0,3.97-1.78,3.97-3.97v-7.95c0-2.2-1.78-3.97-3.97-3.97h-7.95c-2.2,0-3.97,1.78-3.97,3.97v7.95
			C580.12,274.37,581.9,276.15,584.1,276.15z M584.1,264.22h7.95v7.95h-7.95V264.22z"/>
		<path d="M603.97,276.15h7.95c2.2,0,3.97-1.78,3.97-3.97v-7.95c0-2.2-1.78-3.97-3.97-3.97h-7.95c-2.2,0-3.97,1.78-3.97,3.97v7.95
			C600,274.37,601.78,276.15,603.97,276.15z M603.97,264.22h7.95v7.95h-7.95V264.22z"/>
		<path d="M564.22,296.02h7.95c2.2,0,3.98-1.78,3.98-3.97v-7.95c0-2.2-1.78-3.97-3.98-3.97h-7.95c-2.2,0-3.97,1.78-3.97,3.97v7.95
			C560.25,294.25,562.03,296.02,564.22,296.02z M564.22,284.1h7.95v7.95h-7.95V284.1z"/>
		<path d="M564.22,315.9h7.95c2.2,0,3.98-1.78,3.98-3.97v-7.95c0-2.2-1.78-3.97-3.98-3.97h-7.95c-2.2,0-3.97,1.78-3.97,3.97v7.95
			C560.25,314.12,562.03,315.9,564.22,315.9z M564.22,303.97h7.95v7.95h-7.95V303.97z"/>
		<path d="M584.1,296.02h7.95c2.2,0,3.97-1.78,3.97-3.97v-7.95c0-2.2-1.78-3.97-3.97-3.97h-7.95c-2.2,0-3.97,1.78-3.97,3.97v7.95
			C580.12,294.25,581.9,296.02,584.1,296.02z M584.1,284.1h7.95v7.95h-7.95V284.1z"/>
		<path d="M603.97,296.02h7.95c2.2,0,3.97-1.78,3.97-3.97v-7.95c0-2.2-1.78-3.97-3.97-3.97h-7.95c-2.2,0-3.97,1.78-3.97,3.97v7.95
			C600,294.25,601.78,296.02,603.97,296.02z M603.97,284.1h7.95v7.95h-7.95V284.1z"/>
		<path d="M584.1,315.9h7.95c2.2,0,3.97-1.78,3.97-3.97v-7.95c0-2.2-1.78-3.97-3.97-3.97h-7.95c-2.2,0-3.97,1.78-3.97,3.97v7.95
			C580.12,314.12,581.9,315.9,584.1,315.9z M584.1,303.97h7.95v7.95h-7.95V303.97z"/>
		<path d="M564.22,335.78h7.95c2.2,0,3.98-1.78,3.98-3.97v-7.95c0-2.2-1.78-3.97-3.98-3.97h-7.95c-2.2,0-3.97,1.78-3.97,3.97v7.95
			C560.25,334,562.03,335.78,564.22,335.78z M564.22,323.85h7.95v7.95h-7.95V323.85z"/>
		<path d="M584.1,335.78h7.95c2.2,0,3.97-1.78,3.97-3.97v-7.95c0-2.2-1.78-3.97-3.97-3.97h-7.95c-2.2,0-3.97,1.78-3.97,3.97v7.95
			C580.12,334,581.9,335.78,584.1,335.78z M584.1,323.85h7.95v7.95h-7.95V323.85z"/>
		<path d="M586.09,347.7h3.98v3.97h-3.98V347.7z"/>
	</g>
</g>
<g>
	<path class="st14" d="M430.74,137.94c10.36,0,18.75-8.4,18.75-18.75s-8.4-18.75-18.75-18.75c-0.98,0.01-1.95,0.09-2.92,0.26
		c-4.58-15.34-20.73-24.06-36.07-19.48c-9.4,2.81-16.75,10.18-19.52,19.6c-0.94-0.25-1.91-0.37-2.88-0.38
		c-6.59,0-11.93,5.34-11.93,11.94c0,0.91,0.11,1.82,0.32,2.71c-6.04,2.65-8.78,9.69-6.13,15.73c1.9,4.34,6.19,7.14,10.92,7.14
		L430.74,137.94L430.74,137.94z"/>
	<path class="st15" d="M430.74,100.43c-0.98,0.01-1.95,0.09-2.92,0.26c-1.34-4.48-3.75-8.58-7.01-11.93
		c-10.78,29.58-35.14,43.05-54.56,49.19h64.48c10.36,0,18.75-8.4,18.75-18.75S441.1,100.43,430.74,100.43z"/>
	<polygon class="st1" points="400.05,131.12 386.41,115.77 372.77,131.12 379.59,131.12 379.59,154.99 393.23,154.99 393.23,131.12 
			"/>
	<polygon class="st2" points="400.05,144.76 413.69,160.1 427.33,144.76 420.51,144.76 420.51,120.89 406.87,120.89 406.87,144.76 	
		"/>
	<path class="st11" d="M379.59,154.99h13.64v-12.8c-4.43,1.86-8.99,3.39-13.64,4.57V154.99z"/>
	<path class="st16" d="M420.51,124.14c-4.16,4.09-8.73,7.73-13.64,10.88v9.74h-6.82l13.64,15.35l13.64-15.35h-6.82V124.14
		L420.51,124.14z"/>
	<path d="M430.74,98.72c-0.56,0-1.13,0-1.71,0.09c-5.57-16.01-23.06-24.47-39.07-18.9c-8.86,3.08-15.82,10.04-18.9,18.9
		c-7.47-0.94-14.3,4.35-15.24,11.83c-0.07,0.57-0.11,1.15-0.11,1.73c0,0.57,0.04,1.14,0.12,1.71c-6.59,3.65-8.98,11.95-5.33,18.54
		c2.42,4.37,7.04,7.07,12.03,7.04h11.93v-3.41h-11.93c-5.65-0.01-10.22-4.6-10.21-10.25c0.01-4.05,2.4-7.71,6.1-9.34
		c0.75-0.33,1.16-1.15,0.97-1.94c-1.28-5.5,2.15-11,7.65-12.28c1.57-0.36,3.21-0.35,4.78,0.04c0.89,0.22,1.79-0.3,2.05-1.18
		c4.25-14.46,19.41-22.73,33.87-18.48c8.86,2.6,15.8,9.51,18.44,18.36c0.25,0.81,1.05,1.32,1.89,1.19c0.88-0.14,1.77-0.22,2.66-0.22
		c9.42,0,17.05,7.63,17.05,17.05s-7.63,17.05-17.05,17.05h-5.12v3.41h5.12c11.3,0,20.46-9.16,20.46-20.46S442.04,98.72,430.74,98.72
		z"/>
	<path d="M379.59,156.69h13.64c0.94,0,1.7-0.76,1.7-1.71v-22.16h5.11c0.94,0,1.7-0.77,1.7-1.71c0-0.41-0.15-0.81-0.42-1.12
		l-13.64-15.34c-0.62-0.71-1.7-0.77-2.41-0.15c-0.05,0.05-0.1,0.1-0.15,0.15l-13.64,15.34c-0.62,0.71-0.55,1.79,0.16,2.41
		c0.31,0.27,0.71,0.42,1.12,0.42h5.11v22.16C377.89,155.93,378.65,156.69,379.59,156.69z M376.57,129.41l9.84-11.07l9.84,11.07
		h-3.02c-0.94,0-1.71,0.76-1.71,1.71v22.16H381.3v-22.16c0-0.94-0.76-1.71-1.71-1.71L376.57,129.41L376.57,129.41z"/>
	<path d="M420.51,119.18h-13.64c-0.94,0-1.71,0.76-1.71,1.71v22.16h-5.11c-0.94,0-1.7,0.77-1.7,1.71c0,0.41,0.15,0.81,0.42,1.12
		l13.64,15.35c0.62,0.71,1.7,0.77,2.41,0.15c0.05-0.05,0.1-0.1,0.15-0.15l13.64-15.35c0.62-0.71,0.55-1.79-0.16-2.41
		c-0.31-0.27-0.71-0.42-1.12-0.42h-5.12v-22.16C422.22,119.94,421.45,119.18,420.51,119.18z M423.53,146.46l-9.84,11.07l-9.84-11.07
		h3.02c0.94,0,1.7-0.76,1.7-1.71v-22.16h10.23v22.16c0,0.94,0.76,1.7,1.7,1.7L423.53,146.46L423.53,146.46z"/>
	<rect x="398.35" y="136.23" width="3.41" height="3.41"/>
</g>
<g>
	<path class="st14" d="M130.74,167.94c10.36,0,18.75-8.4,18.75-18.75s-8.4-18.75-18.75-18.75c-0.98,0.01-1.95,0.09-2.92,0.26
		c-4.58-15.34-20.73-24.06-36.07-19.48c-9.4,2.81-16.75,10.18-19.52,19.6c-0.94-0.25-1.91-0.37-2.88-0.38
		c-6.59,0-11.93,5.34-11.93,11.93c0,0.91,0.11,1.82,0.32,2.71c-6.04,2.65-8.78,9.69-6.13,15.73c1.9,4.34,6.19,7.14,10.92,7.14
		L130.74,167.94L130.74,167.94z"/>
	<path class="st15" d="M130.74,130.43c-0.98,0.01-1.95,0.09-2.92,0.26c-1.34-4.48-3.75-8.58-7.01-11.94
		c-10.78,29.58-35.14,43.05-54.56,49.19h64.48c10.36,0,18.75-8.4,18.75-18.75S141.1,130.43,130.74,130.43z"/>
	<polygon class="st17" points="100.05,161.12 86.41,145.77 72.77,161.12 79.59,161.12 79.59,184.99 93.23,184.99 93.23,161.12 	"/>
	<polygon class="st18" points="100.05,174.76 113.69,190.1 127.33,174.76 120.51,174.76 120.51,150.89 106.87,150.89 106.87,174.76 
			"/>
	<path class="st19" d="M79.59,184.99h13.64v-12.8c-4.43,1.86-8.99,3.39-13.64,4.57V184.99z"/>
	<path class="st20" d="M120.51,154.14c-4.16,4.09-8.73,7.73-13.64,10.88v9.74h-6.82l13.64,15.35l13.64-15.35h-6.82L120.51,154.14
		L120.51,154.14z"/>
	<path d="M130.74,128.72c-0.56,0-1.13,0-1.71,0.09c-5.57-16.01-23.06-24.47-39.07-18.9c-8.86,3.08-15.82,10.04-18.9,18.9
		c-7.47-0.94-14.3,4.35-15.24,11.83c-0.07,0.57-0.11,1.15-0.11,1.73c0,0.57,0.04,1.14,0.12,1.71c-6.59,3.65-8.98,11.95-5.33,18.54
		c2.42,4.37,7.04,7.07,12.03,7.04h11.93v-3.41H62.54c-5.65-0.01-10.22-4.6-10.21-10.25c0.01-4.05,2.4-7.71,6.1-9.34
		c0.75-0.33,1.16-1.15,0.97-1.94c-1.28-5.5,2.15-11,7.65-12.28c1.57-0.36,3.21-0.35,4.78,0.04c0.89,0.22,1.79-0.3,2.05-1.18
		c4.25-14.45,19.41-22.73,33.87-18.48c8.86,2.6,15.8,9.51,18.44,18.36c0.25,0.81,1.05,1.32,1.89,1.19c0.88-0.14,1.77-0.22,2.66-0.22
		c9.42,0,17.05,7.63,17.05,17.05c0,9.42-7.63,17.05-17.05,17.05h-5.12v3.41h5.12c11.3,0,20.46-9.16,20.46-20.46
		C151.2,137.88,142.04,128.72,130.74,128.72z"/>
	<path class="st21" d="M79.59,186.69h13.64c0.94,0,1.7-0.76,1.7-1.71v-22.16h5.12c0.94,0,1.7-0.77,1.7-1.71
		c0-0.41-0.15-0.81-0.42-1.12l-13.64-15.35c-0.62-0.71-1.7-0.77-2.41-0.15c-0.05,0.05-0.1,0.1-0.15,0.15l-13.64,15.35
		c-0.62,0.71-0.55,1.79,0.16,2.41c0.31,0.27,0.71,0.42,1.12,0.42h5.11v22.16C77.89,185.93,78.65,186.69,79.59,186.69z M76.57,159.41
		l9.84-11.07l9.84,11.07h-3.02c-0.94,0-1.71,0.76-1.71,1.71v22.16H81.3v-22.16c0-0.94-0.76-1.71-1.71-1.71L76.57,159.41
		L76.57,159.41z"/>
	<path class="st21" d="M120.51,149.18h-13.64c-0.94,0-1.71,0.76-1.71,1.71v22.16h-5.11c-0.94,0-1.7,0.77-1.7,1.71
		c0,0.41,0.15,0.81,0.42,1.12l13.64,15.35c0.62,0.71,1.7,0.77,2.41,0.15c0.05-0.05,0.1-0.1,0.15-0.15l13.64-15.35
		c0.62-0.71,0.55-1.79-0.16-2.41c-0.31-0.27-0.71-0.42-1.12-0.42h-5.11v-22.16C122.22,149.94,121.45,149.18,120.51,149.18z
		 M123.53,176.46l-9.84,11.07l-9.84-11.07h3.02c0.94,0,1.7-0.76,1.7-1.71v-22.16h10.23v22.16c0,0.94,0.76,1.7,1.7,1.7L123.53,176.46
		L123.53,176.46z"/>
	<rect x="74.48" y="166.23" width="51.15" height="3.41"/>
</g>
<g>
	<g>
		<line class="st22" x1="200" y1="240" x2="200" y2="237"/>
		<line class="st23" x1="200" y1="231.2" x2="200" y2="210.9"/>
		<polyline class="st22" points="200,208 200,205 203,205 		"/>
		<line class="st24" x1="208.82" y1="205" x2="380.59" y2="205"/>
		<polyline class="st22" points="383.5,205 386.5,205 386.5,202 		"/>
		<line class="st23" x1="386.5" y1="196.2" x2="386.5" y2="175.9"/>
		<line class="st22" x1="386.5" y1="173" x2="386.5" y2="170"/>
	</g>
</g>
<g>
	<g>
		<line class="st22" x1="588" y1="230" x2="588" y2="227"/>
		<line class="st25" x1="588" y1="220.67" x2="588" y2="211.17"/>
		<polyline class="st22" points="588,208 588,205 585,205 		"/>
		<line class="st26" x1="579.17" y1="205" x2="418.91" y2="205"/>
		<polyline class="st22" points="416,205 413,205 413,202 		"/>
		<line class="st23" x1="413" y1="196.2" x2="413" y2="175.9"/>
		<line class="st22" x1="413" y1="173" x2="413" y2="170"/>
	</g>
</g>
<g>
	<g>
		<line class="st22" x1="100" y1="186" x2="100" y2="189"/>
		<line class="st27" x1="100" y1="194.68" x2="100" y2="294.16"/>
		<polyline class="st22" points="100,297 100,300 103,300 		"/>
		<line class="st28" x1="110" y1="300" x2="120.5" y2="300"/>
		<line class="st22" x1="124" y1="300" x2="127" y2="300"/>
	</g>
</g>
<g>
	<path d="M68.73,155.67c-0.62-0.37-1.1-0.88-1.45-1.55c-0.34-0.67-0.52-1.44-0.52-2.3c0-0.86,0.17-1.63,0.52-2.29
		c0.34-0.67,0.83-1.18,1.45-1.55c0.62-0.37,1.33-0.55,2.13-0.55c0.6,0,1.16,0.1,1.67,0.31c0.51,0.21,0.94,0.51,1.3,0.89
		c0.36,0.39,0.64,0.85,0.83,1.39l-1.78,0.64c-0.16-0.45-0.42-0.8-0.77-1.05s-0.77-0.38-1.26-0.38c-0.45,0-0.84,0.1-1.17,0.31
		s-0.59,0.51-0.77,0.9c-0.18,0.39-0.27,0.85-0.27,1.38c0,0.54,0.09,1,0.27,1.39c0.18,0.39,0.44,0.69,0.77,0.9s0.72,0.31,1.17,0.31
		c0.49,0,0.91-0.12,1.26-0.38s0.61-0.6,0.77-1.05l1.78,0.64c-0.19,0.54-0.47,1-0.83,1.39c-0.36,0.39-0.8,0.69-1.3,0.89
		c-0.51,0.21-1.06,0.31-1.67,0.31C70.06,156.22,69.35,156.03,68.73,155.67z"/>
	<path d="M80,150.23c0.4,0.19,0.71,0.45,0.93,0.8c0.21,0.35,0.32,0.75,0.32,1.22V156h-1.66l-0.12-0.59
		c-0.36,0.48-0.88,0.72-1.55,0.72c-0.44,0-0.83-0.09-1.18-0.26s-0.62-0.41-0.82-0.72c-0.2-0.31-0.29-0.66-0.29-1.06
		c0-0.34,0.07-0.63,0.21-0.87c0.14-0.25,0.34-0.44,0.6-0.58c0.36-0.2,0.82-0.3,1.37-0.3h1.63v-0.1c0-0.22-0.09-0.39-0.27-0.52
		c-0.18-0.13-0.43-0.2-0.75-0.2c-0.24,0-0.48,0.05-0.71,0.14c-0.23,0.09-0.47,0.26-0.72,0.5l-1.31-1.09
		c0.36-0.37,0.79-0.65,1.29-0.84c0.51-0.19,1.03-0.28,1.57-0.28C79.12,149.95,79.6,150.04,80,150.23z M78.81,154.55
		c0.18-0.09,0.33-0.21,0.45-0.36c0.11-0.15,0.18-0.33,0.19-0.52h-1.37c-0.2,0-0.35,0.04-0.46,0.11c-0.12,0.08-0.18,0.2-0.18,0.35
		c0,0.17,0.07,0.3,0.21,0.4c0.14,0.1,0.33,0.15,0.56,0.15C78.43,154.68,78.63,154.64,78.81,154.55z"/>
	<path d="M90.79,150.28c0.33,0.22,0.58,0.49,0.74,0.83c0.16,0.34,0.24,0.7,0.24,1.07V156h-1.81v-3.37c0-0.74-0.28-1.1-0.84-1.1
		c-0.32,0-0.56,0.13-0.72,0.39c-0.15,0.26-0.23,0.67-0.23,1.22V156h-1.8v-3.37c0-0.36-0.07-0.63-0.21-0.82s-0.33-0.28-0.58-0.28
		c-0.34,0-0.59,0.13-0.75,0.39c-0.16,0.26-0.24,0.67-0.24,1.21V156h-1.81v-5.92h1.81v0.56c0.2-0.24,0.43-0.42,0.7-0.53
		c0.27-0.11,0.56-0.16,0.86-0.16c0.32,0,0.62,0.06,0.91,0.17c0.29,0.11,0.54,0.3,0.75,0.58c0.24-0.28,0.5-0.47,0.79-0.58
		c0.29-0.11,0.61-0.17,0.96-0.17C90.04,149.95,90.45,150.06,90.79,150.28z"/>
	<path d="M97.99,150.35c0.36,0.27,0.64,0.63,0.83,1.1c0.19,0.47,0.29,1,0.29,1.6c0,0.64-0.11,1.19-0.32,1.66s-0.5,0.82-0.87,1.06
		c-0.37,0.24-0.77,0.36-1.22,0.36c-0.29,0-0.58-0.05-0.86-0.17c-0.28-0.11-0.52-0.26-0.7-0.45v2.93h-1.8v-8.36h1.8v0.44
		c0.2-0.2,0.43-0.35,0.71-0.44c0.28-0.09,0.56-0.14,0.85-0.14C97.19,149.95,97.63,150.08,97.99,150.35z M96.99,154.1
		c0.2-0.25,0.31-0.6,0.31-1.05c0-0.46-0.1-0.81-0.31-1.06s-0.49-0.38-0.86-0.38c-0.36,0-0.65,0.13-0.85,0.38
		c-0.21,0.25-0.31,0.61-0.31,1.06c0,0.44,0.1,0.79,0.31,1.05c0.21,0.25,0.49,0.38,0.85,0.38C96.5,154.48,96.78,154.35,96.99,154.1z"
		/>
	<path d="M104.27,150.08h1.81V156h-1.81v-0.58c-0.4,0.47-0.95,0.71-1.64,0.71c-0.75,0-1.31-0.21-1.67-0.64
		c-0.36-0.43-0.55-1.01-0.55-1.75v-3.66h1.81v3.29c0,0.24,0.02,0.44,0.06,0.61s0.13,0.31,0.28,0.42s0.35,0.17,0.62,0.17
		c0.34,0,0.59-0.1,0.75-0.31c0.16-0.21,0.25-0.48,0.29-0.81c0.04-0.33,0.05-0.79,0.05-1.4V150.08z"/>
	<path d="M108.77,155.95c-0.33-0.12-0.61-0.27-0.83-0.43c-0.22-0.16-0.43-0.35-0.62-0.55l1.22-1.08c0.2,0.24,0.4,0.43,0.61,0.58
		s0.47,0.22,0.77,0.22c0.23,0,0.41-0.04,0.54-0.13c0.13-0.09,0.2-0.19,0.2-0.3c0-0.09-0.04-0.17-0.12-0.23
		c-0.08-0.06-0.19-0.12-0.31-0.16c-0.12-0.04-0.3-0.1-0.54-0.17c-0.42-0.12-0.77-0.24-1.05-0.36c-0.28-0.13-0.53-0.31-0.74-0.56
		s-0.31-0.58-0.31-0.98c0-0.36,0.1-0.69,0.29-0.96c0.19-0.28,0.47-0.49,0.82-0.65c0.35-0.15,0.76-0.23,1.23-0.23
		c0.49,0,0.93,0.09,1.33,0.28s0.71,0.45,0.94,0.79l-1.1,0.89c-0.14-0.19-0.32-0.34-0.54-0.46c-0.22-0.11-0.44-0.17-0.67-0.17
		c-0.17,0-0.31,0.03-0.43,0.1c-0.11,0.06-0.17,0.14-0.17,0.24c0,0.06,0.03,0.12,0.08,0.17c0.05,0.05,0.14,0.1,0.27,0.14
		s0.32,0.1,0.56,0.16c0.44,0.11,0.81,0.22,1.11,0.35c0.3,0.12,0.57,0.31,0.79,0.58c0.23,0.26,0.34,0.61,0.34,1.05
		c0,0.41-0.11,0.77-0.32,1.08c-0.21,0.31-0.51,0.56-0.89,0.73c-0.38,0.17-0.82,0.26-1.32,0.26
		C109.49,156.13,109.11,156.07,108.77,155.95z"/>
	<path d="M118.92,152.74v-5.1h1.88V156h-1.93l-3.14-5.12V156h-1.88v-8.36h1.92L118.92,152.74z"/>
	<path d="M127.92,153.67h-3.89c0.04,0.25,0.16,0.45,0.36,0.6c0.2,0.15,0.48,0.23,0.85,0.23c0.24,0,0.46-0.05,0.68-0.14
		c0.22-0.09,0.41-0.24,0.57-0.44l1.25,1.1c-0.32,0.36-0.68,0.63-1.1,0.82s-0.89,0.28-1.4,0.28c-0.69,0-1.26-0.14-1.71-0.43
		c-0.45-0.29-0.78-0.66-0.99-1.12s-0.31-0.97-0.31-1.51c0-0.53,0.1-1.03,0.3-1.5c0.2-0.47,0.52-0.86,0.96-1.16
		c0.44-0.3,0.99-0.45,1.65-0.45c0.6,0,1.11,0.13,1.54,0.4c0.42,0.27,0.74,0.64,0.96,1.11c0.22,0.47,0.32,1.02,0.32,1.64
		C127.95,153.23,127.94,153.42,127.92,153.67z M126.24,152.34c-0.02-0.27-0.13-0.49-0.33-0.65c-0.21-0.16-0.45-0.24-0.73-0.24
		c-0.36,0-0.64,0.09-0.82,0.26c-0.18,0.18-0.3,0.38-0.34,0.62H126.24z"/>
	<path d="M133.01,151.49h-1.24v2.11c0,0.37,0.05,0.64,0.14,0.81c0.09,0.17,0.27,0.25,0.52,0.25c0.14,0,0.33-0.03,0.58-0.1v1.38
		c-0.34,0.13-0.7,0.19-1.08,0.19c-0.57,0-1.05-0.16-1.42-0.48c-0.37-0.32-0.56-0.83-0.56-1.54v-2.63h-0.98v-1.4h0.98v-1.24
		l1.82-0.97v2.21h1.24V151.49z"/>
</g>
<g>
	<g id="Filled_outline">
		<path class="st29" d="M419.4,54.6h48c2.65,0,4.8,2.15,4.8,4.8v43.2c0,2.65-2.15,4.8-4.8,4.8h-48c-2.65,0-4.8-2.15-4.8-4.8V59.4
			C414.6,56.75,416.75,54.6,419.4,54.6z"/>
		<path class="st30" d="M419.4,48.2h48c2.65,0,4.8,2.15,4.8,4.8v43.2c0,2.65-2.15,4.8-4.8,4.8h-48c-2.65,0-4.8-2.15-4.8-4.8V53
			C414.6,50.35,416.75,48.2,419.4,48.2z"/>
		<path class="st31" d="M472.2,59.4V53c0-2.65-2.15-4.8-4.8-4.8h-48c-2.65,0-4.8,2.15-4.8,4.8v6.4H472.2z"/>
		<path class="st32" d="M459.4,94.6h-40c-2.65,0-4.8-2.15-4.8-4.8V59.4h57.6v22.4L459.4,94.6z"/>
		<path class="st33" d="M459.4,94.6v-8c0-2.65,2.15-4.8,4.8-4.8h8L459.4,94.6z"/>
		<g>
			<path class="st34" d="M421,67.4h6.4v6.4H421V67.4z"/>
			<path class="st34" d="M433.8,67.4h6.4v6.4h-6.4V67.4z"/>
			<path class="st34" d="M446.6,67.4h6.4v6.4h-6.4V67.4z"/>
			<path class="st34" d="M459.4,67.4h6.4v6.4h-6.4V67.4z"/>
			<path class="st34" d="M421,80.2h6.4v6.4H421V80.2z"/>
			<path class="st34" d="M433.8,80.2h6.4v6.4h-6.4V80.2z"/>
			<path class="st34" d="M446.6,80.2h6.4v6.4h-6.4V80.2z"/>
		</g>
		<path d="M419.4,109h48c3.53,0,6.4-2.87,6.4-6.4V91.4h-3.2v4.8c0,1.77-1.43,3.2-3.2,3.2h-48c-1.77,0-3.2-1.43-3.2-3.2v-0.86
			c0.97,0.56,2.08,0.86,3.2,0.86h40c0.42,0,0.83-0.17,1.13-0.47l10.07-10.07v2.54h3.2V53c0-3.53-2.87-6.4-6.4-6.4h-3.2v-3.2H461v3.2
			h-6.4v-3.2h-3.2v3.2H445v-3.2h-3.2v3.2h-6.4v-3.2h-3.2v3.2h-6.4v-3.2h-3.2v3.2h-3.2c-3.53,0-6.4,2.87-6.4,6.4v12h3.2v-4h54.4v19.2
			h-6.4c-3.53,0-6.4,2.87-6.4,6.4V93h-38.4c-1.77,0-3.2-1.43-3.2-3.2V68H413v34.6C413,106.13,415.87,109,419.4,109L419.4,109z
			 M416.2,57.8V53c0-1.77,1.43-3.2,3.2-3.2h3.2V53h3.2v-3.2h6.4V53h3.2v-3.2h6.4V53h3.2v-3.2h6.4V53h3.2v-3.2h6.4V53h3.2v-3.2h3.2
			c1.77,0,3.2,1.43,3.2,3.2v4.8H416.2z M461,86.6c0-1.77,1.43-3.2,3.2-3.2h4.14L461,90.74V86.6z M416.2,101.74
			c0.97,0.56,2.08,0.86,3.2,0.86h48c1.12,0,2.23-0.3,3.2-0.86v0.86c0,1.77-1.43,3.2-3.2,3.2h-48c-1.77,0-3.2-1.43-3.2-3.2V101.74z
			 M421,75.4h6.4c0.88,0,1.6-0.72,1.6-1.6v-6.4c0-0.88-0.72-1.6-1.6-1.6H421c-0.88,0-1.6,0.72-1.6,1.6v6.4
			C419.4,74.68,420.12,75.4,421,75.4z M422.6,69h3.2v3.2h-3.2V69z M433.8,75.4h6.4c0.88,0,1.6-0.72,1.6-1.6v-5.74l2.73-2.73
			l-2.26-2.26l-2.73,2.73h-5.74c-0.88,0-1.6,0.72-1.6,1.6v6.4C432.2,74.68,432.92,75.4,433.8,75.4z M438.6,71.26v0.94h-0.94
			L438.6,71.26z M435.4,69h0.94l-0.94,0.94V69z M446.6,75.4h6.4c0.88,0,1.6-0.72,1.6-1.6v-6.4c0-0.88-0.72-1.6-1.6-1.6h-6.4
			c-0.88,0-1.6,0.72-1.6,1.6v6.4C445,74.68,445.72,75.4,446.6,75.4z M448.2,69h3.2v3.2h-3.2V69z M465.8,75.4
			c0.88,0,1.6-0.72,1.6-1.6v-6.4c0-0.88-0.72-1.6-1.6-1.6h-6.4c-0.88,0-1.6,0.72-1.6,1.6v6.4c0,0.88,0.72,1.6,1.6,1.6H465.8z
			 M461,69h3.2v3.2H461V69z M419.4,86.6c0,0.88,0.72,1.6,1.6,1.6h6.4c0.88,0,1.6-0.72,1.6-1.6v-6.4c0-0.88-0.72-1.6-1.6-1.6H421
			c-0.88,0-1.6,0.72-1.6,1.6V86.6z M422.6,81.8h3.2V85h-3.2V81.8z M432.2,86.6c0,0.88,0.72,1.6,1.6,1.6h6.4c0.88,0,1.6-0.72,1.6-1.6
			v-6.4c0-0.88-0.72-1.6-1.6-1.6h-6.4c-0.88,0-1.6,0.72-1.6,1.6V86.6z M435.4,81.8h3.2V85h-3.2V81.8z M445,86.6
			c0,0.88,0.72,1.6,1.6,1.6h6.4c0.88,0,1.6-0.72,1.6-1.6v-5.74l2.73-2.73l-2.26-2.26l-2.73,2.73h-5.74c-0.88,0-1.6,0.72-1.6,1.6
			V86.6z M451.4,84.06V85h-0.94L451.4,84.06z M448.2,81.8h0.94l-0.94,0.94V81.8z"/>
	</g>
</g>
<polyline class="st35" points="119,293 126.07,300.07 119,307.14 "/>
<polyline class="st35" points="379.43,177.07 386.5,170 393.57,177.07 "/>
<polyline class="st35" points="595,223 587.93,230.07 580.86,223 "/>
<g class="st36">
	<path d="M315.45,407h-1.02l1.36-6.97h1.02L315.45,407z"/>
	<path d="M317.99,406.84c-0.29-0.17-0.52-0.4-0.67-0.69c-0.15-0.29-0.22-0.62-0.22-0.98c0-0.56,0.12-1.08,0.37-1.57
		c0.24-0.49,0.58-0.88,1.01-1.18c0.43-0.3,0.91-0.44,1.44-0.44c0.49,0,0.9,0.12,1.23,0.36s0.54,0.59,0.63,1.04l-0.92,0.29
		c-0.15-0.56-0.49-0.83-1.03-0.83c-0.34,0-0.63,0.11-0.89,0.33c-0.26,0.22-0.46,0.5-0.6,0.84s-0.21,0.7-0.21,1.07
		c0,0.34,0.08,0.62,0.25,0.83c0.17,0.21,0.43,0.32,0.78,0.32c0.27,0,0.53-0.08,0.76-0.24c0.23-0.16,0.42-0.38,0.57-0.66l0.82,0.34
		c-0.2,0.46-0.5,0.81-0.9,1.05c-0.39,0.24-0.84,0.36-1.33,0.36C318.64,407.09,318.29,407.01,317.99,406.84z"/>
	<path d="M323.03,406.83c-0.31-0.18-0.54-0.42-0.69-0.73s-0.23-0.65-0.23-1.03c0-0.52,0.12-1.02,0.37-1.49
		c0.25-0.47,0.59-0.86,1.04-1.15s0.96-0.44,1.54-0.44c0.44,0,0.81,0.09,1.12,0.27c0.31,0.18,0.54,0.42,0.69,0.73
		c0.16,0.31,0.24,0.65,0.24,1.04c0,0.52-0.12,1.01-0.37,1.49c-0.25,0.47-0.6,0.86-1.05,1.15c-0.45,0.29-0.96,0.44-1.54,0.44
		C323.71,407.09,323.34,407,323.03,406.83z M325.21,405.93c0.28-0.2,0.5-0.47,0.66-0.79c0.16-0.33,0.24-0.67,0.24-1.02
		c0-0.25-0.04-0.47-0.13-0.66c-0.09-0.19-0.22-0.34-0.4-0.45s-0.39-0.16-0.63-0.16c-0.34,0-0.66,0.1-0.94,0.3
		c-0.28,0.2-0.5,0.46-0.66,0.79s-0.24,0.67-0.24,1.02c0,0.25,0.04,0.47,0.13,0.67s0.22,0.34,0.4,0.45s0.39,0.16,0.63,0.16
		C324.61,406.23,324.93,406.13,325.21,405.93z"/>
	<path d="M332.11,402.32c0.25,0.23,0.37,0.55,0.37,0.98c0,0.18-0.02,0.36-0.06,0.54l-0.61,3.16h-0.99l0.54-2.8
		c0.04-0.22,0.07-0.41,0.07-0.54c0-0.26-0.07-0.46-0.2-0.6c-0.13-0.14-0.35-0.21-0.64-0.21c-0.81,0-1.33,0.58-1.55,1.74l-0.47,2.42
		h-0.99l0.96-4.93h0.79l0,0.79c0.42-0.58,0.98-0.88,1.7-0.88C331.5,401.98,331.86,402.09,332.11,402.32z"/>
	<path d="M333.63,406.8c-0.36-0.2-0.62-0.45-0.8-0.77l0.72-0.56c0.16,0.28,0.35,0.49,0.58,0.62c0.23,0.14,0.5,0.21,0.82,0.21
		c0.32,0,0.56-0.07,0.73-0.2c0.17-0.13,0.26-0.31,0.26-0.53c0-0.14-0.04-0.26-0.13-0.35c-0.09-0.09-0.2-0.17-0.33-0.22
		c-0.13-0.05-0.31-0.11-0.52-0.17c-0.3-0.08-0.54-0.17-0.74-0.25s-0.36-0.21-0.5-0.38c-0.14-0.17-0.2-0.39-0.2-0.66
		c0-0.3,0.09-0.57,0.26-0.81c0.17-0.24,0.41-0.42,0.7-0.55c0.29-0.13,0.62-0.19,0.97-0.19c0.45,0,0.83,0.08,1.12,0.26
		s0.51,0.4,0.64,0.67l-0.69,0.47c-0.26-0.44-0.65-0.67-1.18-0.67c-0.26,0-0.47,0.05-0.63,0.17c-0.16,0.11-0.24,0.25-0.24,0.44
		c0,0.13,0.04,0.23,0.12,0.31c0.08,0.08,0.18,0.14,0.3,0.19s0.29,0.09,0.5,0.15c0.3,0.08,0.55,0.17,0.77,0.26
		c0.22,0.1,0.41,0.25,0.55,0.44c0.15,0.19,0.23,0.44,0.23,0.74c0,0.33-0.09,0.62-0.26,0.88s-0.42,0.46-0.74,0.6
		c-0.31,0.14-0.67,0.21-1.08,0.21C334.4,407.09,333.98,406.99,333.63,406.8z"/>
	<path d="M344.49,402.22c0.26,0.16,0.47,0.39,0.61,0.69s0.22,0.65,0.22,1.05c0,0.52-0.11,1.02-0.33,1.5s-0.53,0.87-0.92,1.17
		c-0.39,0.3-0.83,0.45-1.32,0.45c-0.36,0-0.68-0.08-0.95-0.25s-0.45-0.4-0.55-0.68l-0.28,0.84h-0.79l1.36-6.97h0.97l-0.53,2.72
		c0.21-0.25,0.45-0.45,0.72-0.58c0.27-0.13,0.56-0.2,0.87-0.2C343.92,401.98,344.23,402.06,344.49,402.22z M343.53,405.9
		c0.25-0.19,0.45-0.44,0.58-0.75c0.14-0.31,0.21-0.64,0.21-0.98c0-0.38-0.1-0.69-0.29-0.92c-0.19-0.23-0.46-0.34-0.83-0.34
		c-0.33,0-0.63,0.09-0.9,0.28c-0.27,0.19-0.47,0.44-0.62,0.75s-0.22,0.63-0.22,0.96c0,0.25,0.04,0.48,0.13,0.67
		c0.09,0.2,0.22,0.35,0.4,0.46c0.18,0.11,0.39,0.17,0.64,0.17C342.98,406.18,343.27,406.09,343.53,405.9z"/>
	<path d="M346.96,409.04h-1.07l1.27-2.16l-1.06-4.81h1.08l0.72,3.69l2.08-3.69h1.07L346.96,409.04z"/>
	<path d="M360.73,402.35c0.24,0.25,0.36,0.59,0.36,1.02c0,0.17-0.02,0.36-0.07,0.59l-0.59,3.04h-0.98l0.54-2.75
		c0.04-0.2,0.05-0.38,0.05-0.54c0-0.58-0.26-0.87-0.79-0.87c-0.35,0-0.63,0.12-0.86,0.37c-0.22,0.24-0.38,0.62-0.48,1.14l-0.51,2.66
		h-0.98l0.54-2.81c0.04-0.22,0.05-0.39,0.05-0.5c0-0.57-0.26-0.85-0.79-0.85c-0.34,0-0.62,0.12-0.85,0.36
		c-0.23,0.24-0.38,0.6-0.47,1.08l-0.53,2.72h-0.98l0.95-4.93h0.76l-0.04,0.73c0.2-0.27,0.43-0.47,0.7-0.61s0.56-0.21,0.86-0.21
		c0.35,0,0.64,0.08,0.85,0.24s0.36,0.39,0.43,0.7c0.23-0.32,0.5-0.55,0.8-0.71c0.3-0.16,0.62-0.23,0.96-0.23
		C360.14,401.98,360.49,402.1,360.73,402.35z"/>
	<path d="M362.69,406.83c-0.31-0.18-0.54-0.42-0.69-0.73s-0.23-0.65-0.23-1.03c0-0.52,0.12-1.02,0.37-1.49
		c0.25-0.47,0.59-0.86,1.04-1.15s0.96-0.44,1.54-0.44c0.44,0,0.81,0.09,1.12,0.27c0.31,0.18,0.54,0.42,0.69,0.73
		c0.16,0.31,0.24,0.65,0.24,1.04c0,0.52-0.12,1.01-0.37,1.49c-0.25,0.47-0.6,0.86-1.05,1.15c-0.45,0.29-0.96,0.44-1.54,0.44
		C363.36,407.09,362.99,407,362.69,406.83z M364.86,405.93c0.28-0.2,0.5-0.47,0.66-0.79c0.16-0.33,0.24-0.67,0.24-1.02
		c0-0.25-0.04-0.47-0.13-0.66c-0.09-0.19-0.22-0.34-0.4-0.45s-0.39-0.16-0.63-0.16c-0.34,0-0.66,0.1-0.94,0.3
		c-0.28,0.2-0.5,0.46-0.66,0.79s-0.24,0.67-0.24,1.02c0,0.25,0.04,0.47,0.13,0.67s0.22,0.34,0.4,0.45s0.39,0.16,0.63,0.16
		C364.27,406.23,364.58,406.13,364.86,405.93z"/>
	<path d="M371.76,402.32c0.25,0.23,0.37,0.55,0.37,0.98c0,0.18-0.02,0.36-0.06,0.54l-0.61,3.16h-0.99l0.54-2.8
		c0.04-0.22,0.07-0.41,0.07-0.54c0-0.26-0.07-0.46-0.2-0.6c-0.13-0.14-0.35-0.21-0.64-0.21c-0.81,0-1.33,0.58-1.55,1.74l-0.47,2.42
		h-0.99l0.96-4.93H369l0,0.79c0.42-0.58,0.98-0.88,1.7-0.88C371.16,401.98,371.51,402.09,371.76,402.32z"/>
	<path d="M376.85,402.07h1.31l-2.13,1.82l1.42,3.11h-1.1l-1.09-2.45l-1.18,1L373.8,407h-0.98l1.36-6.97h0.98l-0.84,4.3
		L376.85,402.07z"/>
	<path d="M379.19,407h-0.99l0.96-4.93h0.99L379.19,407z M380.32,401.22h-1l0.24-1.19h1L380.32,401.22z"/>
	<path d="M384.7,402.07h1.32l-2.13,1.82l1.42,3.11h-1.1l-1.09-2.45l-1.17,1l-0.29,1.45h-0.98l1.36-6.97h0.98l-0.85,4.3L384.7,402.07
		z"/>
</g>
</svg>
